<svg width="22" height="20" viewBox="0 0 22 20" fill="none" xmlns="http://www.w3.org/2000/svg">
<path opacity="0.5" d="M21.0483 8H0.0483398V17C0.0483398 17.7956 0.380214 18.5587 0.970954 19.1213C1.56169 19.6839 2.36291 20 3.19834 20H17.8983C18.7338 20 19.535 19.6839 20.1257 19.1213C20.7165 18.5587 21.0483 17.7956 21.0483 17V8ZM5.29834 6C5.01986 6 4.75279 5.89464 4.55588 5.70711C4.35896 5.51957 4.24834 5.26522 4.24834 5V1C4.24834 0.734784 4.35896 0.48043 4.55588 0.292893C4.75279 0.105357 5.01986 0 5.29834 0C5.57682 0 5.84389 0.105357 6.0408 0.292893C6.23771 0.48043 6.34834 0.734784 6.34834 1V5C6.34834 5.26522 6.23771 5.51957 6.0408 5.70711C5.84389 5.89464 5.57682 6 5.29834 6ZM15.7983 6C15.5199 6 15.2528 5.89464 15.0559 5.70711C14.859 5.51957 14.7483 5.26522 14.7483 5V1C14.7483 0.734784 14.859 0.48043 15.0559 0.292893C15.2528 0.105357 15.5199 0 15.7983 0C16.0768 0 16.3439 0.105357 16.5408 0.292893C16.7377 0.48043 16.8483 0.734784 16.8483 1V5C16.8483 5.26522 16.7377 5.51957 16.5408 5.70711C16.3439 5.89464 16.0768 6 15.7983 6Z" fill="white"/>
</svg>
